<?xml version="1.0" encoding="UTF-8" standalone="no"?>
<svg
   id="body_1"
   width="74.69577"
   height="62.907761"
   version="1.1"
   xmlns="http://www.w3.org/2000/svg"
   xmlns:svg="http://www.w3.org/2000/svg">
  <defs
     id="defs82" />
  <g
     transform="matrix(0.8500001,0,0,0.8500001,-5.1000004,-10.104584)"
     id="g77">
    <g
       transform="matrix(0.1,0,0,-0.1,0,100)"
       id="g75">
      <path
         d="m 460,845 c -3.57084,-10.39378 7.7975,-35.72675 -6.89387,-35 -37.02403,-1.83341 -81.40641,8.08045 -109.45647,-22.18799 C 313.75689,762.60988 352.02309,696.06356 307,690 c -48.72575,3.37402 -56.639,-54.20294 -56.6185,-90.80377 -8.26678,-32.37731 16.20659,-91.34319 -22.85025,-104.68061 -31.32112,-26.60153 5.32518,-74.06679 8,-108.3125 17.22797,-46.88357 -50.66222,-65.55738 -84.09375,-49.5 -26.20769,7.88604 -71.067752,51.44541 -90.211182,23.72413 C 95.138007,335.05537 136.51574,318.15858 178,310 c 37.82232,5.03921 70.25568,26.70458 104,43 45.70159,-19.70262 92.75472,-55.19812 144.6875,-36.32812 C 452.66391,326.27124 475.69636,341.97952 500,355 542.15516,329.97827 589.67674,296.31043 640.62354,317.64453 667.27819,327.41682 692.20457,341.22865 718,353 c 35.28643,-16.50367 69.28915,-41.28301 109.26929,-42.53662 39.3417,10.07576 79.14818,25.07942 111.50439,49.96387 -24.54282,29.47265 -70.25585,-24.63038 -103.35962,-27.39014 -41.12574,-12.53906 -94.49635,23.58212 -66.98828,68.33203 4.57984,31.03488 39.07837,84.60889 -6.59766,97.92774 -21.40726,28.98566 -6.63783,77.98633 -12.91455,114.41708 2.13838,40.43633 -21.88181,85.13553 -68.36669,77.80166 -24.02119,28.44067 4.15281,81.81777 -34.04004,105.57642 C 614.25055,816.03945 575.64555,808.36652 540,810 c -1.69683,21.64595 4.36458,45.46744 -5.375,65.25 C 508.37513,881.92883 448.38021,892.34109 460,845 Z m 60,-15 c 10.00996,-45.20887 -58.26703,-33.15202 -39.79688,7.89258 C 477.93311,873.53121 530.81567,863.31725 520,830 Z M 648,728 c 1,-19 2,-38 3,-57 24.66667,-2 49.33333,-4 74,-6 1.97979,-51.00079 3.97927,-102.00081 6,-153 -76.70738,23.54362 -151.97537,53.24505 -231,68 -75.45226,-16.07392 -148.65721,-42.38704 -221.38281,-67.51172 -14.32503,25.35584 -4.91565,59.26277 -6.08728,88.28928 0.82336,21.40748 1.64673,42.81496 2.47009,64.22244 25.00325,1.95939 50.00342,3.95725 75,6 1.30954,37.64848 -4.05496,76.5705 7,113 95.61919,8.88444 192.04462,1.87175 288,1 1,-19 2,-38 3,-57 z M 541,550 c 47.61049,-8.34809 16.14387,-72.12388 14,-104 -5.66667,-25.33333 -11.33333,-50.66667 -17,-76 -25.66667,0 -51.33333,0 -77,0 -9.21553,50.95737 -25.30499,101.51362 -24.25,153.625 8.75128,44.60392 73.46405,28.29196 104.25,26.375 z M 415,508 c 8.43197,-48.8657 27.09265,-97.79628 22.25586,-147.80273 -19.48184,-38.93901 -70.69376,-22.09652 -100.12524,-4.26685 -34.05428,14.91521 -85.18309,8.46324 -86.84867,58.71466 -25.44675,41.60936 7.92405,76.55869 48.97025,83.36615 35.14104,4.82051 88.15133,50.37999 114.42651,14.73364 z m 268,-5 c 35.80456,-10.00229 95.73014,-28.27467 69.76532,-77.79324 -1.94125,-45.04202 -37.02879,-60.55061 -76.59149,-64.04465 -33.14278,-12.86622 -71.22558,-40.47581 -105.26245,-13.62769 -22.5758,32.72389 0.0314,76.00263 3.59057,112.10816 6.06976,32.85598 10.76077,92.12561 57.36011,60.5686 C 648.97961,514.6897 666.01603,508.91881 683,503 Z"
         stroke="none"
         fill="#000000"
         fill-rule="nonzero"
         id="path43" />
      <path
         d="m 400,740 c 2.10477,-44.59481 68.05782,-2.97983 28.60938,18.70312 C 415.47463,763.7258 398.13634,755.93389 400,740 Z m 30,0 c -24.85403,-38.2616 -24.39634,37.84493 0,0 z"
         stroke="none"
         fill="#000000"
         fill-rule="nonzero"
         id="path45" />
      <path
         d="m 480,740 c 2.10477,-44.59481 68.05782,-2.97983 28.60938,18.70312 C 495.47463,763.7258 478.13634,755.93389 480,740 Z m 30,0 c -24.85403,-38.2616 -24.39634,37.84493 0,0 z"
         stroke="none"
         fill="#000000"
         fill-rule="nonzero"
         id="path47" />
      <path
         d="m 560,740 c 2.10477,-44.59481 68.05782,-2.97983 28.60938,18.70312 C 575.47463,763.7258 558.13634,755.93389 560,740 Z m 30,0 c -24.85403,-38.2616 -24.39634,37.84493 0,0 z"
         stroke="none"
         fill="#000000"
         fill-rule="nonzero"
         id="path49" />
      <path
         d="m 320,620 c 2.10477,-44.59481 68.05782,-2.97983 28.60938,18.70312 C 335.47463,643.7258 318.13634,635.93389 320,620 Z m 30,0 c -24.85403,-38.2616 -24.39634,37.84493 0,0 z"
         stroke="none"
         fill="#000000"
         fill-rule="nonzero"
         id="path51" />
      <path
         d="m 400,620 c 2.10477,-44.59481 68.05782,-2.97983 28.60938,18.70312 C 415.47463,643.7258 398.13634,635.93389 400,620 Z m 30,0 c -24.85403,-38.2616 -24.39634,37.84493 0,0 z"
         stroke="none"
         fill="#000000"
         fill-rule="nonzero"
         id="path53" />
      <path
         d="m 480,620 c 2.10477,-44.59481 68.05782,-2.97983 28.60938,18.70312 C 495.47463,643.7258 478.13634,635.93389 480,620 Z m 30,0 c -24.85403,-38.2616 -24.39634,37.84493 0,0 z"
         stroke="none"
         fill="#000000"
         fill-rule="nonzero"
         id="path55" />
      <path
         d="m 560,620 c 2.10477,-44.59481 68.05782,-2.97983 28.60938,18.70312 C 575.47463,643.7258 558.13634,635.93389 560,620 Z m 30,0 c -24.85403,-38.2616 -24.39634,37.84493 0,0 z"
         stroke="none"
         fill="#000000"
         fill-rule="nonzero"
         id="path57" />
      <path
         d="m 640,620 c 2.10477,-44.59481 68.05782,-2.97983 28.60938,18.70312 C 655.47463,643.7258 638.13634,635.93389 640,620 Z m 30,0 c -24.85403,-38.2616 -24.39634,37.84493 0,0 z"
         stroke="none"
         fill="#000000"
         fill-rule="nonzero"
         id="path59" />
      <path
         d="M 351,441 C 326.65886,414.90384 355.98366,339.84647 392.125,383.25 405.84582,407.871 388.5944,472.88374 351,441 Z"
         stroke="none"
         fill="#000000"
         fill-rule="nonzero"
         id="path61" />
      <path
         d="M 605,419 C 583.94084,370.93486 663.46359,349.52261 656.57764,407.96875 667.73922,448.7647 608.11032,469.25195 605,419 Z"
         stroke="none"
         fill="#000000"
         fill-rule="nonzero"
         id="path63" />
      <path
         d="m 104,255 c 13.34756,-6.02991 67.47319,-36.73429 60.625,-17.75 -28.51678,18.62638 -59.98732,37.69436 -93.943359,42.25 C 76.242869,267.8428 93.142705,262.0494 104,255 Z"
         stroke="none"
         fill="#000000"
         fill-rule="nonzero"
         id="path65" />
      <path
         d="m 240,269 c -5.55556,-16.17243 51.47559,9.91995 66.49219,-4.9043 37.00702,-16.71575 77.46549,-49.31088 118.80163,-24.18988 C 446.3427,250.5158 487.56531,261.93407 492,280 446.30254,271.7321 403.4943,219.75931 356.42188,252.23438 321.6517,268.90619 277.18621,293.18017 240,269 Z"
         stroke="none"
         fill="#000000"
         fill-rule="nonzero"
         id="path67" />
      <path
         d="m 520,276 c 26.91103,-29.92089 75.76955,-55.69842 116.75,-40.125 37.38799,20.43819 82.6596,50.33376 123.75415,18.51953 17.7709,-16.81007 79.26576,-30.81138 80.57397,-19.45703 -45.72544,3.56511 -78.3904,44.664 -124.20312,44.1875 -48.34053,1.92958 -85.46902,-54.34484 -134.8125,-32.76562 C 560.46162,253.82358 542.46195,272.36847 520,276 Z"
         stroke="none"
         fill="#000000"
         fill-rule="nonzero"
         id="path69" />
      <path
         d="m 890,270 c -41.77195,-33.6231 85.42846,13.27051 26.01562,8.85938 C 906.87523,277.78835 897.66165,275.30263 890,270 Z"
         stroke="none"
         fill="#000000"
         fill-rule="nonzero"
         id="path71" />
      <path
         d="m 60,190 c 34.619164,-15.51504 74.3731,-42.69374 115.25,-48.75 46.94236,-2.01719 84.14711,52.74389 131.25,32.875 39.20211,-17.16504 84.05207,-49.27703 126.88672,-22.32812 36.62689,29.97522 88.68957,36.57288 126.1001,3.80859 37.83669,-27.56812 83.88542,-8.88924 119.30224,12.59765 38.09399,25.94459 77.5355,-3.86272 112.39405,-19.6289 45.2956,-23.84815 85.35704,15.17171 125.62939,29.84766 35.75184,-2.37794 19.51769,34.18256 -7.91602,18.18945 C 871.28763,186.45225 835.5445,144.68823 794.54907,168.57422 755.11572,198.93905 697.7701,211.56733 655,180 618.08856,144.98788 570.90472,169.03952 535.29785,191.42578 488.10902,215.37602 445.52786,177.3532 403.31055,162.42188 357.21245,154.9562 325.73827,207.44931 278.52539,199.5918 234.19522,198.79791 200.88646,145.90809 155.10938,165.9375 127.92967,174.27622 84.516036,217.58296 60,190 Z"
         stroke="none"
         fill="#000000"
         fill-rule="nonzero"
         id="path73" />
    </g>
  </g>
</svg>
