<?xml version="1.0" standalone="no"?>
<!DOCTYPE svg PUBLIC "-//W3C//DTD SVG 20010904//EN"
 "http://www.w3.org/TR/2001/REC-SVG-20010904/DTD/svg10.dtd">
<svg version="1.0" xmlns="http://www.w3.org/2000/svg"
 width="100.000000pt" height="100.000000pt" viewBox="0 0 100.000000 100.000000"
 preserveAspectRatio="xMidYMid meet">

<g transform="translate(0.000000,100.000000) scale(0.100000,-0.100000)"
fill="#000000" stroke="none">
<path d="M460 845 l0 -35 -48 0 c-61 0 -82 -20 -82 -78 0 -37 -3 -42 -23 -42
-43 0 -57 -29 -57 -113 0 -42 -3 -77 -7 -77 -5 0 -14 -4 -21 -9 -11 -6 -10
-20 4 -70 17 -59 17 -62 -2 -76 -27 -20 -64 -18 -99 5 -30 20 -65 27 -65 13 1
-12 94 -53 118 -53 12 0 40 10 63 22 l41 21 44 -21 c56 -28 85 -28 135 1 l39
22 39 -23 c50 -28 79 -28 135 0 l44 21 41 -21 c23 -12 51 -22 63 -22 24 0 117
41 118 53 0 14 -35 7 -65 -13 -35 -23 -72 -25 -99 -5 -19 14 -19 17 -2 76 14
50 15 64 4 70 -7 5 -16 9 -20 9 -5 0 -8 35 -8 78 0 85 -14 112 -58 112 -19 0
-22 6 -22 43 0 57 -21 77 -83 77 l-47 0 0 35 c0 34 -1 35 -40 35 -39 0 -40 -1
-40 -35z m60 -15 c0 -23 -4 -30 -20 -30 -16 0 -20 7 -20 30 0 23 4 30 20 30
16 0 20 -7 20 -30z m128 -102 l3 -57 37 -3 37 -3 3 -77 3 -76 -105 34 c-58 19
-114 34 -126 34 -16 0 -170 -47 -218 -67 -10 -4 -12 12 -10 74 l3 78 38 3 37
3 0 53 c0 29 3 56 7 60 4 3 70 5 147 4 l141 -3 3 -57z m-107 -178 c30 0 32
-21 14 -104 l-17 -76 -38 0 -39 0 -12 58 c-20 99 -18 115 16 123 17 4 36 5 43
3 8 -2 22 -4 33 -4z m-126 -42 c32 -145 32 -156 -1 -168 -19 -8 -34 -5 -64 10
-22 11 -50 20 -63 20 -19 0 -26 8 -35 39 -19 62 -17 66 61 94 89 32 95 32 102
5z m268 -5 c83 -28 84 -31 65 -94 -9 -31 -16 -39 -35 -39 -13 0 -41 -9 -63
-20 -30 -15 -45 -18 -64 -10 -33 12 -33 23 -1 168 3 12 9 22 13 22 4 0 42 -12
85 -27z"/>
<path d="M400 740 c0 -13 7 -20 20 -20 13 0 20 7 20 20 0 13 -7 20 -20 20 -13
0 -20 -7 -20 -20z m30 0 c0 -5 -4 -10 -10 -10 -5 0 -10 5 -10 10 0 6 5 10 10
10 6 0 10 -4 10 -10z"/>
<path d="M480 740 c0 -13 7 -20 20 -20 13 0 20 7 20 20 0 13 -7 20 -20 20 -13
0 -20 -7 -20 -20z m30 0 c0 -5 -4 -10 -10 -10 -5 0 -10 5 -10 10 0 6 5 10 10
10 6 0 10 -4 10 -10z"/>
<path d="M560 740 c0 -13 7 -20 20 -20 13 0 20 7 20 20 0 13 -7 20 -20 20 -13
0 -20 -7 -20 -20z m30 0 c0 -5 -4 -10 -10 -10 -5 0 -10 5 -10 10 0 6 5 10 10
10 6 0 10 -4 10 -10z"/>
<path d="M320 620 c0 -13 7 -20 20 -20 13 0 20 7 20 20 0 13 -7 20 -20 20 -13
0 -20 -7 -20 -20z m30 0 c0 -5 -4 -10 -10 -10 -5 0 -10 5 -10 10 0 6 5 10 10
10 6 0 10 -4 10 -10z"/>
<path d="M400 620 c0 -13 7 -20 20 -20 13 0 20 7 20 20 0 13 -7 20 -20 20 -13
0 -20 -7 -20 -20z m30 0 c0 -5 -4 -10 -10 -10 -5 0 -10 5 -10 10 0 6 5 10 10
10 6 0 10 -4 10 -10z"/>
<path d="M480 620 c0 -13 7 -20 20 -20 13 0 20 7 20 20 0 13 -7 20 -20 20 -13
0 -20 -7 -20 -20z m30 0 c0 -5 -4 -10 -10 -10 -5 0 -10 5 -10 10 0 6 5 10 10
10 6 0 10 -4 10 -10z"/>
<path d="M560 620 c0 -13 7 -20 20 -20 13 0 20 7 20 20 0 13 -7 20 -20 20 -13
0 -20 -7 -20 -20z m30 0 c0 -5 -4 -10 -10 -10 -5 0 -10 5 -10 10 0 6 5 10 10
10 6 0 10 -4 10 -10z"/>
<path d="M640 620 c0 -13 7 -20 20 -20 13 0 20 7 20 20 0 13 -7 20 -20 20 -13
0 -20 -7 -20 -20z m30 0 c0 -5 -4 -10 -10 -10 -5 0 -10 5 -10 10 0 6 5 10 10
10 6 0 10 -4 10 -10z"/>
<path d="M351 441 c-16 -10 -6 -71 12 -71 28 1 39 18 32 49 -7 31 -19 38 -44
22z"/>
<path d="M605 419 c-7 -31 4 -48 32 -49 18 0 28 61 12 71 -25 16 -37 9 -44
-22z"/>
<path d="M104 255 c26 -14 54 -25 63 -25 9 0 -5 11 -31 25 -26 14 -54 25 -63
25 -9 0 5 -11 31 -25z"/>
<path d="M240 269 c-11 -7 -5 -8 22 -3 28 5 45 1 71 -15 19 -12 45 -21 58 -21
25 1 124 49 101 50 -6 0 -29 -9 -49 -20 -21 -11 -44 -20 -51 -20 -7 0 -30 9
-52 20 -43 22 -77 25 -100 9z"/>
<path d="M520 276 c0 -13 66 -46 90 -46 14 0 39 9 55 20 38 25 62 25 103 0 18
-11 45 -20 60 -19 27 1 26 1 -4 8 -17 5 -42 15 -55 24 -31 23 -71 21 -111 -3
-42 -25 -62 -25 -104 1 -19 11 -34 18 -34 15z"/>
<path d="M890 270 c-24 -15 -7 -18 25 -4 23 10 25 13 10 13 -11 1 -27 -3 -35
-9z"/>
<path d="M60 190 c0 -5 7 -10 15 -10 8 0 29 -9 47 -20 41 -25 64 -25 111 0 20
11 44 20 52 20 8 0 32 -9 52 -20 47 -25 70 -25 111 0 41 25 63 25 104 0 41
-25 64 -25 111 0 46 25 58 25 104 0 47 -25 70 -25 111 0 18 11 39 20 47 20 8
0 15 5 15 10 0 16 -33 11 -68 -10 -41 -25 -59 -25 -97 0 -38 25 -82 25 -120 0
-38 -25 -56 -25 -97 0 -42 25 -74 25 -116 0 -41 -25 -59 -25 -97 0 -16 11 -43
20 -60 20 -16 0 -43 -9 -60 -20 -38 -25 -56 -25 -97 0 -35 21 -68 26 -68 10z"/>
</g>
</svg>
